<svg version="1.1" id="el_f26E5N9gk" xmlns="http://www.w3.org/2000/svg" xmlns:xlink="http://www.w3.org/1999/xlink" x="0px" y="0px" viewBox="0 0 283 283" style="enable-background:new 0 0 283.5 283.5;" xml:space="preserve"><style>@-webkit-keyframes el_MWI0d7KkR5_m4synG8ct_Animation{0%{-webkit-transform: rotate(-10deg);transform: rotate(-10deg);}25%{-webkit-transform: rotate(15deg);transform: rotate(15deg);}50%{-webkit-transform: rotate(-10deg);transform: rotate(-10deg);}74.17%{-webkit-transform: rotate(10deg);transform: rotate(10deg);}99.17%{-webkit-transform: rotate(-10deg);transform: rotate(-10deg);}100%{-webkit-transform: rotate(-10deg);transform: rotate(-10deg);}}@keyframes el_MWI0d7KkR5_m4synG8ct_Animation{0%{-webkit-transform: rotate(-10deg);transform: rotate(-10deg);}25%{-webkit-transform: rotate(15deg);transform: rotate(15deg);}50%{-webkit-transform: rotate(-10deg);transform: rotate(-10deg);}74.17%{-webkit-transform: rotate(10deg);transform: rotate(10deg);}99.17%{-webkit-transform: rotate(-10deg);transform: rotate(-10deg);}100%{-webkit-transform: rotate(-10deg);transform: rotate(-10deg);}}#el_f26E5N9gk *{-webkit-animation-duration: 4s;animation-duration: 4s;-webkit-animation-iteration-count: infinite;animation-iteration-count: infinite;-webkit-animation-timing-function: cubic-bezier(0, 0, 1, 1);animation-timing-function: cubic-bezier(0, 0, 1, 1);}#el_Xal4RRlFrJ{fill: #2990CF;stroke: #025171;stroke-width: 2;stroke-miterlimit: 10;}#el_KsiqUahHzQ{fill: #EFDAC7;stroke: #025171;stroke-width: 2;stroke-miterlimit: 10;}#el_uNVeQkambj{fill: #F6E7DF;stroke: #025171;stroke-width: 2;stroke-miterlimit: 10;}#el_DsL5smjn1z{fill: #F6E7DF;stroke: #025171;stroke-width: 2;stroke-miterlimit: 10;}#el_xhAsrjFpKb{fill: none;stroke: #025171;stroke-width: 2;stroke-miterlimit: 10;}#el_-yNjp61RwM{fill: #025171;stroke: #025171;stroke-width: 2;stroke-miterlimit: 10;}#el_1OUqbEFb54{fill: #025171;stroke: #025171;stroke-width: 2;stroke-miterlimit: 10;}#el_qH260O7Udr{fill: none;stroke: #025171;stroke-width: 2;stroke-miterlimit: 10;}#el_p4Q0Nk1VhC{fill: #2990CF;stroke: #025171;stroke-width: 2;stroke-miterlimit: 10;}#el_gUWQGIQE7Z{fill: #025171;stroke: #025171;stroke-width: 2;stroke-miterlimit: 10;}#el_JNp5JqE88z{fill: #025171;stroke: #025171;stroke-width: 2;stroke-miterlimit: 10;}#el_M7eQ7S0Ghd{fill: #EFDAC7;stroke: #025171;stroke-width: 2;stroke-miterlimit: 10;}#el_UlQoeVOk6_{fill: #F6E7DF;stroke: #025171;stroke-width: 2;stroke-miterlimit: 10;}#el_MWI0d7KkR5_m4synG8ct{-webkit-transform-origin: 100% 100%;transform-origin: 100% 100%;transform-box: fill-box;-webkit-animation-name: el_MWI0d7KkR5_m4synG8ct_Animation;animation-name: el_MWI0d7KkR5_m4synG8ct_Animation;}</style>

<path id="el_Xal4RRlFrJ" d="M61,134.8c0.3,32.5,20.7,45.3,5,70.8c-11.2,18.2,57.5,14.1,54.5,13.7c0,0,93.1,24.7,81.8-6.8&#xA;&#9;C191,181,230,173.5,214,145.7s20.9-49.8-8.3-54.7C216,60.1,176.3,40.3,176,50.3C84.8,23.3,44,113.3,61,134.8z"/>
<path id="el_KsiqUahHzQ" d="M93.9,234.6c0-25.3,20.1-52.4,44.8-52.4s44.8,27.1,44.8,52.4"/>
<path id="el_uNVeQkambj" d="M148.7,184.3V164h-19.3v19.8c-4.4,1.6-7.3,4.4-7.3,7.5c0,5,7.3,9,16.4,9c9.1,0,16.4-4,16.4-9&#xA;&#9;C154.8,188.5,152.4,186,148.7,184.3z"/>
<circle id="el_DsL5smjn1z" cx="139" cy="122.9" r="49.7"/>
<path id="el_xhAsrjFpKb" d="M152.4,134.5c0,4.3-6,7.7-13.5,7.7s-13.5-3.5-13.5-7.7"/>
<circle id="el_-yNjp61RwM" cx="114.2" cy="115" r="6.3"/>
<circle id="el_1OUqbEFb54" cx="161.1" cy="115" r="6.3"/>
<path id="el_qH260O7Udr" d="M135.2,117.9c0-2.8,2.3-5,5-5s5,2.3,5,5s-2.3,5-5,5"/>
<path id="el_p4Q0Nk1VhC" d="M78.7,134.5c2.3,8.4,39.2-54,53.7-51.5c24.9,26.5,49.2,47.6,68.3,48&#xA;&#9;c1.7-29.6-8.7-56.7-35.1-64.4C95.7,33.3,73.7,116.4,78.7,134.5z"/>
<line id="el_gUWQGIQE7Z" x1="112.1" y1="221.5" x2="112.1" y2="234.6"/>
<line id="el_JNp5JqE88z" x1="165.4" y1="221.7" x2="167.7" y2="234.8"/>
<g id="el_MWI0d7KkR5_m4synG8ct" data-animator-group="true" data-animator-type="1"><g id="el_MWI0d7KkR5">
	<path id="el_M7eQ7S0Ghd" d="M177.3,234.6l-6.4-37.4c-0.7-4,1.8-7.9,5.6-8.6h0c3.8-0.7,7.5,2.1,8.2,6.1l6.7,39.8"/>
	<path id="el_UlQoeVOk6_" d="M183.7,179.2c0,0,1.1-10.7,0.5-12s-4.6-8.6-8.4-9.1c-6.5,0.6-5.9,10.6-6,11.9l-1.8-4&#xA;&#9;&#9;c-0.4-0.8-1.4-1.1-2.1-0.7c0,0-1.3,2.4-0.9,3.1l1.9,9l1.3,3.5c0,0,2.3,5,5.5,7.2l1,5.9c-0.1,0.2-0.2,0.4-0.2,0.7&#xA;&#9;&#9;c0,1.3,1.6,2.3,3.6,2.3s3.6-1,3.6-2.3c0-0.6-0.4-1.2-1-1.6l-0.9-5C182.3,186.4,183.7,182.6,183.7,179.2z"/>
</g></g>
<script>(function(){var a=document.querySelector('#el_f26E5N9gk'),b=a.querySelectorAll('style'),c=function(d){b.forEach(function(f){var g=f.textContent;g&amp;&amp;(f.textContent=g.replace(/transform-box:[^;\r\n]*/gi,'transform-box: '+d))})};c('initial'),window.requestAnimationFrame(function(){return c('fill-box')})})();</script></svg>